<?xml version="1.0" standalone="no"?>
<!DOCTYPE svg PUBLIC "-//W3C//DTD SVG 20010904//EN"
 "http://www.w3.org/TR/2001/REC-SVG-20010904/DTD/svg10.dtd">
<svg version="1.0" xmlns="http://www.w3.org/2000/svg"
 width="462.000000pt" height="462.000000pt" viewBox="0 0 462.000000 462.000000"
 preserveAspectRatio="xMidYMid meet">
<metadata>
Created by potrace 1.11, written by Peter Selinger 2001-2013
</metadata>
<g transform="translate(0.000000,462.000000) scale(0.100000,-0.100000)"
fill="#000000" stroke="none">
<path d="M2200 4150 c-344 -23 -661 -122 -905 -285 -266 -177 -446 -446 -510
-765 -22 -109 -17 -402 9 -495 42 -151 118 -290 216 -397 188 -207 469 -335
833 -379 l97 -12 0 -374 0 -373 140 0 140 0 0 373 0 374 120 17 c156 22 244
45 356 93 331 143 498 402 465 720 -23 219 -81 353 -206 479 -97 98 -184 151
-326 198 -156 53 -312 76 -514 79 l-170 2 -3 -644 -2 -643 -68 7 c-153 16
-323 65 -447 128 -59 31 -102 63 -165 127 -146 145 -195 272 -193 500 2 166
22 253 93 395 63 127 148 229 258 311 204 151 460 238 782 264 590 49 1076
-162 1358 -590 107 -162 192 -387 229 -606 28 -168 25 -522 -5 -661 -108 -494
-439 -879 -882 -1027 -195 -65 -208 -66 -905 -68 -617 -3 -631 -3 -675 -24
-66 -31 -83 -55 -88 -124 -4 -57 -3 -61 30 -94 19 -19 53 -39 77 -46 30 -8
230 -10 709 -7 643 3 671 4 764 25 329 75 587 220 824 463 244 252 385 539
455 929 18 100 19 494 1 615 -50 334 -168 639 -329 857 -69 92 -236 261 -323
327 -196 147 -450 257 -708 306 -73 14 -337 36 -392 33 -14 0 -77 -4 -140 -8z
m139 -1060 c46 -6 125 -24 176 -40 241 -78 347 -222 349 -475 1 -92 -2 -105
-29 -158 -34 -68 -123 -156 -195 -192 -79 -40 -193 -74 -297 -90 -54 -8 -101
-15 -105 -15 -10 0 -11 964 -1 973 8 9 3 9 102 -3z"/>
</g>
</svg>
